<svg width="252" height="252" viewBox="0 0 252 252" fill="none" xmlns="http://www.w3.org/2000/svg">
<g filter="url(#filter0_di_3_2132)">
<circle cx="126" cy="114" r="100" fill="url(#paint0_linear_3_2132)" shape-rendering="crispEdges"/>
<circle cx="126" cy="114" r="100.407" stroke="url(#paint1_linear_3_2132)" stroke-width="0.814516" shape-rendering="crispEdges"/>
</g>
<g filter="url(#filter1_di_3_2132)">
<circle cx="126" cy="114" r="82" fill="url(#paint2_linear_3_2132)"/>
<circle cx="126" cy="114" r="81.5927" stroke="url(#paint3_linear_3_2132)" stroke-width="0.814516"/>
</g>
<circle cx="126" cy="114" r="71" fill="url(#paint4_linear_3_2132)"/>
<g filter="url(#filter2_i_3_2132)">
<path d="M121 96.9176C120.055 96.2787 119.264 95.4104 118.625 94.3126C117.986 93.2159 117.666 92.0009 117.666 90.6676C117.666 88.5843 118.395 86.8132 119.853 85.3543C121.312 83.8965 123.083 83.1676 125.166 83.1676C127.25 83.1676 129.021 83.8965 130.48 85.3543C131.938 86.8132 132.666 88.5843 132.666 90.6676C132.666 92.0565 132.34 93.2854 131.688 94.3543C131.035 95.4243 130.25 96.2787 129.333 96.9176V90.6676C129.333 89.5009 128.93 88.5148 128.125 87.7093C127.319 86.9037 126.333 86.5009 125.166 86.5009C124 86.5009 123.014 86.9037 122.208 87.7093C121.403 88.5148 121 89.5009 121 90.6676V96.9176ZM124.25 118.168C123.778 118.168 123.354 118.084 122.98 117.918C122.604 117.751 122.25 117.501 121.916 117.168L115.291 110.543C114.986 110.237 114.805 109.862 114.75 109.418C114.694 108.973 114.778 108.556 115 108.168C115.222 107.834 115.507 107.598 115.855 107.459C116.201 107.32 116.528 107.279 116.833 107.334L122.666 108.584V90.6676C122.666 89.9732 122.91 89.3832 123.396 88.8976C123.882 88.4109 124.472 88.1676 125.166 88.1676C125.861 88.1676 126.451 88.4109 126.936 88.8976C127.423 89.3832 127.666 89.9732 127.666 90.6676V100.668H128.666C128.916 100.668 129.173 100.695 129.436 100.751C129.701 100.806 129.944 100.89 130.166 101.001L137.5 104.418C138.166 104.723 138.66 105.195 138.98 105.834C139.299 106.473 139.403 107.154 139.291 107.876L138.25 115.293C138.139 116.098 137.764 116.779 137.125 117.334C136.486 117.89 135.764 118.168 134.958 118.168H124.25Z" fill="#E53A2F"/>
</g>
<path d="M96.373 142.732C97.0749 142.732 97.7038 142.609 98.2598 142.363C98.8203 142.117 99.2829 141.773 99.6475 141.331C100.012 140.884 100.249 140.36 100.358 139.759V139.745H99.1143L99.1006 139.759C99.0003 140.137 98.8226 140.465 98.5674 140.743C98.3122 141.017 97.9977 141.229 97.624 141.379C97.2503 141.525 96.8333 141.598 96.373 141.598C95.7396 141.598 95.1904 141.434 94.7256 141.105C94.2653 140.777 93.9098 140.312 93.6592 139.711C93.4085 139.109 93.2832 138.398 93.2832 137.578V137.564C93.2832 136.74 93.4085 136.026 93.6592 135.425C93.9098 134.823 94.2653 134.358 94.7256 134.03C95.1904 133.702 95.7373 133.538 96.3662 133.538C96.8219 133.538 97.2344 133.622 97.6035 133.791C97.9772 133.96 98.2939 134.199 98.5537 134.509C98.8135 134.814 98.998 135.179 99.1074 135.603L99.1143 135.616H100.352L100.358 135.603C100.263 134.974 100.03 134.42 99.6611 133.941C99.292 133.458 98.8226 133.082 98.2529 132.813C97.6878 132.54 97.0589 132.403 96.3662 132.403C95.473 132.403 94.7005 132.613 94.0488 133.032C93.4017 133.451 92.9004 134.046 92.5449 134.816C92.194 135.587 92.0186 136.503 92.0186 137.564V137.578C92.0186 138.635 92.194 139.549 92.5449 140.319C92.9004 141.09 93.404 141.684 94.0557 142.104C94.7074 142.523 95.4798 142.732 96.373 142.732ZM102.341 142.5H103.53V138.139C103.53 137.706 103.608 137.334 103.763 137.024C103.922 136.715 104.146 136.475 104.433 136.307C104.72 136.138 105.059 136.054 105.451 136.054C106.039 136.054 106.472 136.215 106.75 136.539C107.033 136.858 107.174 137.35 107.174 138.016V142.5H108.363V137.729C108.363 137.145 108.263 136.651 108.062 136.245C107.862 135.84 107.57 135.532 107.188 135.322C106.805 135.108 106.338 135.001 105.786 135.001C105.244 135.001 104.797 135.11 104.446 135.329C104.095 135.543 103.826 135.846 103.64 136.238H103.53V132.205H102.341V142.5ZM113.524 142.63C113.957 142.63 114.347 142.575 114.693 142.466C115.044 142.352 115.347 142.201 115.603 142.015C115.858 141.823 116.065 141.611 116.225 141.379C116.389 141.142 116.503 140.898 116.566 140.647L116.58 140.593H115.391L115.363 140.654C115.299 140.8 115.188 140.944 115.028 141.085C114.869 141.226 114.666 141.342 114.42 141.434C114.174 141.525 113.884 141.57 113.552 141.57C113.105 141.57 112.718 141.472 112.39 141.276C112.062 141.076 111.809 140.791 111.631 140.422C111.453 140.048 111.364 139.599 111.364 139.075V138.604C111.364 138.052 111.455 137.587 111.638 137.209C111.82 136.831 112.066 136.546 112.376 136.354C112.69 136.159 113.046 136.061 113.442 136.061C113.839 136.061 114.19 136.154 114.495 136.341C114.8 136.523 115.04 136.801 115.213 137.175C115.386 137.549 115.473 138.025 115.473 138.604V139.075L116.061 138.207H110.763V139.157H116.669V138.692C116.669 137.959 116.539 137.316 116.279 136.765C116.024 136.209 115.655 135.776 115.172 135.466C114.693 135.156 114.119 135.001 113.449 135.001C112.784 135.001 112.203 135.163 111.706 135.486C111.209 135.81 110.824 136.259 110.551 136.833C110.282 137.407 110.147 138.075 110.147 138.836V138.843C110.147 139.613 110.282 140.283 110.551 140.853C110.824 141.418 111.212 141.855 111.713 142.165C112.219 142.475 112.823 142.63 113.524 142.63ZM121.529 142.63C122.122 142.63 122.628 142.532 123.047 142.336C123.466 142.14 123.803 141.871 124.059 141.529C124.314 141.183 124.492 140.789 124.592 140.347L124.605 140.271L123.43 140.278L123.416 140.319C123.279 140.729 123.054 141.042 122.739 141.256C122.425 141.47 122.019 141.577 121.522 141.577C121.085 141.577 120.704 141.463 120.381 141.235C120.057 141.007 119.807 140.686 119.629 140.271C119.451 139.852 119.362 139.36 119.362 138.795V138.781C119.362 138.225 119.449 137.744 119.622 137.339C119.8 136.929 120.05 136.612 120.374 136.389C120.698 136.165 121.08 136.054 121.522 136.054C122.051 136.054 122.477 136.181 122.801 136.437C123.124 136.692 123.332 137.002 123.423 137.366L123.43 137.387H124.612L124.605 137.346C124.533 136.908 124.366 136.514 124.106 136.163C123.847 135.808 123.5 135.525 123.067 135.315C122.634 135.106 122.119 135.001 121.522 135.001C120.834 135.001 120.237 135.158 119.731 135.473C119.226 135.783 118.834 136.22 118.556 136.785C118.282 137.35 118.146 138.016 118.146 138.781V138.795C118.146 139.574 118.285 140.251 118.562 140.825C118.84 141.399 119.232 141.844 119.738 142.158C120.244 142.473 120.841 142.63 121.529 142.63ZM126.417 142.5H127.606V132.205H126.417V142.5ZM131.059 142.5H132.556L129.056 138.132L128.181 138.891L131.059 142.5ZM127.456 139.848L128.557 138.788L128.844 138.508L132.344 135.131H130.901L127.716 138.351H127.401L127.456 139.848ZM142.194 142.732C143.133 142.732 143.94 142.521 144.614 142.097C145.293 141.673 145.813 141.076 146.173 140.306C146.537 139.531 146.72 138.619 146.72 137.571V137.558C146.72 136.505 146.537 135.593 146.173 134.823C145.808 134.049 145.286 133.451 144.607 133.032C143.933 132.613 143.129 132.403 142.194 132.403C141.265 132.403 140.46 132.613 139.781 133.032C139.107 133.451 138.585 134.046 138.216 134.816C137.851 135.587 137.669 136.5 137.669 137.558V137.571C137.669 138.619 137.849 139.531 138.209 140.306C138.574 141.08 139.093 141.68 139.768 142.104C140.442 142.523 141.251 142.732 142.194 142.732ZM142.194 141.598C141.511 141.598 140.925 141.431 140.438 141.099C139.95 140.766 139.576 140.299 139.316 139.697C139.057 139.091 138.927 138.382 138.927 137.571V137.558C138.927 136.737 139.059 136.026 139.323 135.425C139.592 134.823 139.97 134.358 140.458 134.03C140.946 133.702 141.524 133.538 142.194 133.538C142.869 133.538 143.45 133.702 143.938 134.03C144.425 134.358 144.801 134.823 145.065 135.425C145.33 136.026 145.462 136.737 145.462 137.558V137.571C145.462 138.382 145.33 139.091 145.065 139.697C144.801 140.299 144.425 140.766 143.938 141.099C143.45 141.431 142.869 141.598 142.194 141.598ZM151.17 142.63C151.712 142.63 152.166 142.523 152.53 142.309C152.899 142.094 153.175 141.791 153.357 141.399H153.467V142.5H154.656V135.131H153.467V139.492C153.467 139.921 153.392 140.292 153.241 140.606C153.091 140.916 152.868 141.156 152.571 141.324C152.275 141.493 151.91 141.577 151.478 141.577C150.89 141.577 150.466 141.415 150.206 141.092C149.951 140.768 149.823 140.276 149.823 139.615V135.131H148.634V139.902C148.634 140.481 148.727 140.976 148.914 141.386C149.105 141.791 149.39 142.101 149.769 142.315C150.147 142.525 150.614 142.63 151.17 142.63ZM159.496 142.555C159.615 142.555 159.731 142.548 159.845 142.534C159.959 142.521 160.073 142.505 160.187 142.486V141.475C160.077 141.484 159.984 141.491 159.906 141.495C159.833 141.5 159.744 141.502 159.64 141.502C159.257 141.502 158.983 141.409 158.819 141.222C158.655 141.03 158.573 140.718 158.573 140.285V136.115H160.187V135.131H158.573V133.224H157.343V135.131H156.181V136.115H157.343V140.586C157.343 141.288 157.511 141.791 157.849 142.097C158.19 142.402 158.74 142.555 159.496 142.555Z" fill="#E53A2F"/>
<defs>
<filter id="filter0_di_3_2132" x="0.750002" y="0.967744" width="250.5" height="250.5" filterUnits="userSpaceOnUse" color-interpolation-filters="sRGB">
<feFlood flood-opacity="0" result="BackgroundImageFix"/>
<feColorMatrix in="SourceAlpha" type="matrix" values="0 0 0 0 0 0 0 0 0 0 0 0 0 0 0 0 0 0 127 0" result="hardAlpha"/>
<feOffset dy="12.2177"/>
<feGaussianBlur stdDeviation="12.2177"/>
<feComposite in2="hardAlpha" operator="out"/>
<feColorMatrix type="matrix" values="0 0 0 0 0.556863 0 0 0 0 0.607843 0 0 0 0 0.682353 0 0 0 0.2 0"/>
<feBlend mode="normal" in2="BackgroundImageFix" result="effect1_dropShadow_3_2132"/>
<feBlend mode="normal" in="SourceGraphic" in2="effect1_dropShadow_3_2132" result="shape"/>
<feColorMatrix in="SourceAlpha" type="matrix" values="0 0 0 0 0 0 0 0 0 0 0 0 0 0 0 0 0 0 127 0" result="hardAlpha"/>
<feMorphology radius="0.814516" operator="erode" in="SourceAlpha" result="effect2_innerShadow_3_2132"/>
<feOffset dy="2.44355"/>
<feGaussianBlur stdDeviation="3.25806"/>
<feComposite in2="hardAlpha" operator="arithmetic" k2="-1" k3="1"/>
<feColorMatrix type="matrix" values="0 0 0 0 0.254902 0 0 0 0 0.270588 0 0 0 0 0.364706 0 0 0 0.1 0"/>
<feBlend mode="normal" in2="shape" result="effect2_innerShadow_3_2132"/>
</filter>
<filter id="filter1_di_3_2132" x="31.7823" y="26.2984" width="188.435" height="188.435" filterUnits="userSpaceOnUse" color-interpolation-filters="sRGB">
<feFlood flood-opacity="0" result="BackgroundImageFix"/>
<feColorMatrix in="SourceAlpha" type="matrix" values="0 0 0 0 0 0 0 0 0 0 0 0 0 0 0 0 0 0 127 0" result="hardAlpha"/>
<feOffset dy="6.51613"/>
<feGaussianBlur stdDeviation="6.10887"/>
<feComposite in2="hardAlpha" operator="out"/>
<feColorMatrix type="matrix" values="0 0 0 0 0.556863 0 0 0 0 0.607843 0 0 0 0 0.682353 0 0 0 0.5 0"/>
<feBlend mode="normal" in2="BackgroundImageFix" result="effect1_dropShadow_3_2132"/>
<feBlend mode="normal" in="SourceGraphic" in2="effect1_dropShadow_3_2132" result="shape"/>
<feColorMatrix in="SourceAlpha" type="matrix" values="0 0 0 0 0 0 0 0 0 0 0 0 0 0 0 0 0 0 127 0" result="hardAlpha"/>
<feOffset dx="2.44355" dy="2.44355"/>
<feGaussianBlur stdDeviation="3.25806"/>
<feComposite in2="hardAlpha" operator="arithmetic" k2="-1" k3="1"/>
<feColorMatrix type="matrix" values="0 0 0 0 1 0 0 0 0 1 0 0 0 0 1 0 0 0 0.5 0"/>
<feBlend mode="normal" in2="shape" result="effect2_innerShadow_3_2132"/>
</filter>
<filter id="filter2_i_3_2132" x="114.733" y="83.1676" width="24.6014" height="36.2218" filterUnits="userSpaceOnUse" color-interpolation-filters="sRGB">
<feFlood flood-opacity="0" result="BackgroundImageFix"/>
<feBlend mode="normal" in="SourceGraphic" in2="BackgroundImageFix" result="shape"/>
<feColorMatrix in="SourceAlpha" type="matrix" values="0 0 0 0 0 0 0 0 0 0 0 0 0 0 0 0 0 0 127 0" result="hardAlpha"/>
<feOffset dy="1.22177"/>
<feGaussianBlur stdDeviation="0.610887"/>
<feComposite in2="hardAlpha" operator="arithmetic" k2="-1" k3="1"/>
<feColorMatrix type="matrix" values="0 0 0 0 0.109804 0 0 0 0 0.356863 0 0 0 0 0.254902 0 0 0 0.15 0"/>
<feBlend mode="normal" in2="shape" result="effect1_innerShadow_3_2132"/>
</filter>
<linearGradient id="paint0_linear_3_2132" x1="91.9836" y1="22.1967" x2="173.951" y2="201.295" gradientUnits="userSpaceOnUse">
<stop stop-color="#DEE2E7"/>
<stop offset="1" stop-color="#DBE0E7"/>
</linearGradient>
<linearGradient id="paint1_linear_3_2132" x1="63.7049" y1="39.4098" x2="169.033" y2="199.246" gradientUnits="userSpaceOnUse">
<stop stop-color="white" stop-opacity="0.5"/>
<stop offset="1" stop-color="#F6F1F1"/>
</linearGradient>
<linearGradient id="paint2_linear_3_2132" x1="90.2182" y1="40.2" x2="163.273" y2="187.8" gradientUnits="userSpaceOnUse">
<stop stop-color="#F5F5F9"/>
<stop offset="1" stop-color="#E4E8EE"/>
</linearGradient>
<linearGradient id="paint3_linear_3_2132" x1="81.2727" y1="58.0909" x2="167" y2="183.327" gradientUnits="userSpaceOnUse">
<stop stop-color="white"/>
<stop offset="1" stop-color="#C0C5CD"/>
</linearGradient>
<linearGradient id="paint4_linear_3_2132" x1="91.3256" y1="54.1453" x2="162.738" y2="172.616" gradientUnits="userSpaceOnUse">
<stop stop-color="#DDE1E7"/>
<stop offset="1" stop-color="#FAFBFC"/>
</linearGradient>
</defs>
</svg>
