<svg width="252" height="252" viewBox="0 0 252 252" fill="none" xmlns="http://www.w3.org/2000/svg">
<g filter="url(#filter0_di_3_1427)">
<circle cx="126" cy="114" r="100" fill="url(#paint0_linear_3_1427)" shape-rendering="crispEdges"/>
<circle cx="126" cy="114" r="100.407" stroke="url(#paint1_linear_3_1427)" stroke-width="0.814516" shape-rendering="crispEdges"/>
</g>
<g filter="url(#filter1_di_3_1427)">
<circle cx="126" cy="114" r="82" fill="url(#paint2_linear_3_1427)"/>
<circle cx="126" cy="114" r="81.5927" stroke="url(#paint3_linear_3_1427)" stroke-width="0.814516"/>
</g>
<circle cx="126" cy="114" r="71" fill="url(#paint4_linear_3_1427)"/>
<g filter="url(#filter2_i_3_1427)">
<path d="M121 96.9176C120.055 96.2787 119.264 95.4104 118.625 94.3126C117.986 93.2159 117.666 92.0009 117.666 90.6676C117.666 88.5843 118.395 86.8132 119.853 85.3543C121.312 83.8965 123.083 83.1676 125.166 83.1676C127.25 83.1676 129.021 83.8965 130.48 85.3543C131.938 86.8132 132.666 88.5843 132.666 90.6676C132.666 92.0565 132.34 93.2854 131.688 94.3543C131.035 95.4243 130.25 96.2787 129.333 96.9176V90.6676C129.333 89.5009 128.93 88.5148 128.125 87.7093C127.319 86.9037 126.333 86.5009 125.166 86.5009C124 86.5009 123.014 86.9037 122.208 87.7093C121.403 88.5148 121 89.5009 121 90.6676V96.9176ZM124.25 118.168C123.778 118.168 123.354 118.084 122.98 117.918C122.604 117.751 122.25 117.501 121.916 117.168L115.291 110.543C114.986 110.237 114.805 109.862 114.75 109.418C114.694 108.973 114.778 108.556 115 108.168C115.222 107.834 115.507 107.598 115.855 107.459C116.201 107.32 116.528 107.279 116.833 107.334L122.666 108.584V90.6676C122.666 89.9732 122.91 89.3832 123.396 88.8976C123.882 88.4109 124.472 88.1676 125.166 88.1676C125.861 88.1676 126.451 88.4109 126.936 88.8976C127.423 89.3832 127.666 89.9732 127.666 90.6676V100.668H128.666C128.916 100.668 129.173 100.695 129.436 100.751C129.701 100.806 129.944 100.89 130.166 101.001L137.5 104.418C138.166 104.723 138.66 105.195 138.98 105.834C139.299 106.473 139.403 107.154 139.291 107.876L138.25 115.293C138.139 116.098 137.764 116.779 137.125 117.334C136.486 117.89 135.764 118.168 134.958 118.168H124.25Z" fill="#1C5B41"/>
</g>
<path d="M102.443 142.732C103.145 142.732 103.774 142.609 104.33 142.363C104.891 142.117 105.353 141.773 105.718 141.331C106.082 140.884 106.319 140.36 106.429 139.759V139.745H105.185L105.171 139.759C105.071 140.137 104.893 140.465 104.638 140.743C104.382 141.017 104.068 141.229 103.694 141.379C103.321 141.525 102.904 141.598 102.443 141.598C101.81 141.598 101.261 141.434 100.796 141.105C100.336 140.777 99.9801 140.312 99.7295 139.711C99.4788 139.109 99.3535 138.398 99.3535 137.578V137.564C99.3535 136.74 99.4788 136.026 99.7295 135.425C99.9801 134.823 100.336 134.358 100.796 134.03C101.261 133.702 101.808 133.538 102.437 133.538C102.892 133.538 103.305 133.622 103.674 133.791C104.048 133.96 104.364 134.199 104.624 134.509C104.884 134.814 105.068 135.179 105.178 135.603L105.185 135.616H106.422L106.429 135.603C106.333 134.974 106.101 134.42 105.731 133.941C105.362 133.458 104.893 133.082 104.323 132.813C103.758 132.54 103.129 132.403 102.437 132.403C101.543 132.403 100.771 132.613 100.119 133.032C99.472 133.451 98.9707 134.046 98.6152 134.816C98.2643 135.587 98.0889 136.503 98.0889 137.564V137.578C98.0889 138.635 98.2643 139.549 98.6152 140.319C98.9707 141.09 99.4743 141.684 100.126 142.104C100.778 142.523 101.55 142.732 102.443 142.732ZM108.411 142.5H109.601V138.139C109.601 137.706 109.678 137.334 109.833 137.024C109.993 136.715 110.216 136.475 110.503 136.307C110.79 136.138 111.13 136.054 111.521 136.054C112.109 136.054 112.542 136.215 112.82 136.539C113.103 136.858 113.244 137.35 113.244 138.016V142.5H114.434V137.729C114.434 137.145 114.333 136.651 114.133 136.245C113.932 135.84 113.641 135.532 113.258 135.322C112.875 135.108 112.408 135.001 111.856 135.001C111.314 135.001 110.868 135.11 110.517 135.329C110.166 135.543 109.897 135.846 109.71 136.238H109.601V132.205H108.411V142.5ZM119.595 142.63C120.028 142.63 120.417 142.575 120.764 142.466C121.115 142.352 121.418 142.201 121.673 142.015C121.928 141.823 122.135 141.611 122.295 141.379C122.459 141.142 122.573 140.898 122.637 140.647L122.65 140.593H121.461L121.434 140.654C121.37 140.8 121.258 140.944 121.099 141.085C120.939 141.226 120.736 141.342 120.49 141.434C120.244 141.525 119.955 141.57 119.622 141.57C119.175 141.57 118.788 141.472 118.46 141.276C118.132 141.076 117.879 140.791 117.701 140.422C117.523 140.048 117.435 139.599 117.435 139.075V138.604C117.435 138.052 117.526 137.587 117.708 137.209C117.89 136.831 118.136 136.546 118.446 136.354C118.761 136.159 119.116 136.061 119.513 136.061C119.909 136.061 120.26 136.154 120.565 136.341C120.871 136.523 121.11 136.801 121.283 137.175C121.456 137.549 121.543 138.025 121.543 138.604V139.075L122.131 138.207H116.833V139.157H122.739V138.692C122.739 137.959 122.609 137.316 122.35 136.765C122.094 136.209 121.725 135.776 121.242 135.466C120.764 135.156 120.189 135.001 119.52 135.001C118.854 135.001 118.273 135.163 117.776 135.486C117.28 135.81 116.895 136.259 116.621 136.833C116.352 137.407 116.218 138.075 116.218 138.836V138.843C116.218 139.613 116.352 140.283 116.621 140.853C116.895 141.418 117.282 141.855 117.783 142.165C118.289 142.475 118.893 142.63 119.595 142.63ZM127.6 142.63C128.192 142.63 128.698 142.532 129.117 142.336C129.536 142.14 129.874 141.871 130.129 141.529C130.384 141.183 130.562 140.789 130.662 140.347L130.676 140.271L129.5 140.278L129.486 140.319C129.35 140.729 129.124 141.042 128.81 141.256C128.495 141.47 128.09 141.577 127.593 141.577C127.155 141.577 126.775 141.463 126.451 141.235C126.128 141.007 125.877 140.686 125.699 140.271C125.521 139.852 125.433 139.36 125.433 138.795V138.781C125.433 138.225 125.519 137.744 125.692 137.339C125.87 136.929 126.121 136.612 126.444 136.389C126.768 136.165 127.151 136.054 127.593 136.054C128.121 136.054 128.548 136.181 128.871 136.437C129.195 136.692 129.402 137.002 129.493 137.366L129.5 137.387H130.683L130.676 137.346C130.603 136.908 130.437 136.514 130.177 136.163C129.917 135.808 129.571 135.525 129.138 135.315C128.705 135.106 128.19 135.001 127.593 135.001C126.905 135.001 126.308 135.158 125.802 135.473C125.296 135.783 124.904 136.22 124.626 136.785C124.353 137.35 124.216 138.016 124.216 138.781V138.795C124.216 139.574 124.355 140.251 124.633 140.825C124.911 141.399 125.303 141.844 125.809 142.158C126.314 142.473 126.911 142.63 127.6 142.63ZM132.487 142.5H133.677V132.205H132.487V142.5ZM137.129 142.5H138.626L135.126 138.132L134.251 138.891L137.129 142.5ZM133.526 139.848L134.627 138.788L134.914 138.508L138.414 135.131H136.972L133.786 138.351H133.472L133.526 139.848ZM144.122 142.5H145.353V132.636H144.122V142.5ZM147.718 142.5H148.907V138.139C148.907 137.706 148.985 137.334 149.14 137.024C149.299 136.715 149.522 136.475 149.81 136.307C150.097 136.138 150.436 136.054 150.828 136.054C151.416 136.054 151.849 136.215 152.127 136.539C152.41 136.858 152.551 137.35 152.551 138.016V142.5H153.74V137.729C153.74 136.854 153.517 136.181 153.07 135.712C152.628 135.238 151.993 135.001 151.163 135.001C150.621 135.001 150.174 135.11 149.823 135.329C149.472 135.543 149.203 135.846 149.017 136.238H148.907V135.131H147.718V142.5Z" fill="#1C5B41"/>
<defs>
<filter id="filter0_di_3_1427" x="0.750002" y="0.967744" width="250.5" height="250.5" filterUnits="userSpaceOnUse" color-interpolation-filters="sRGB">
<feFlood flood-opacity="0" result="BackgroundImageFix"/>
<feColorMatrix in="SourceAlpha" type="matrix" values="0 0 0 0 0 0 0 0 0 0 0 0 0 0 0 0 0 0 127 0" result="hardAlpha"/>
<feOffset dy="12.2177"/>
<feGaussianBlur stdDeviation="12.2177"/>
<feComposite in2="hardAlpha" operator="out"/>
<feColorMatrix type="matrix" values="0 0 0 0 0.556863 0 0 0 0 0.607843 0 0 0 0 0.682353 0 0 0 0.2 0"/>
<feBlend mode="normal" in2="BackgroundImageFix" result="effect1_dropShadow_3_1427"/>
<feBlend mode="normal" in="SourceGraphic" in2="effect1_dropShadow_3_1427" result="shape"/>
<feColorMatrix in="SourceAlpha" type="matrix" values="0 0 0 0 0 0 0 0 0 0 0 0 0 0 0 0 0 0 127 0" result="hardAlpha"/>
<feMorphology radius="0.814516" operator="erode" in="SourceAlpha" result="effect2_innerShadow_3_1427"/>
<feOffset dy="2.44355"/>
<feGaussianBlur stdDeviation="3.25806"/>
<feComposite in2="hardAlpha" operator="arithmetic" k2="-1" k3="1"/>
<feColorMatrix type="matrix" values="0 0 0 0 0.254902 0 0 0 0 0.270588 0 0 0 0 0.364706 0 0 0 0.1 0"/>
<feBlend mode="normal" in2="shape" result="effect2_innerShadow_3_1427"/>
</filter>
<filter id="filter1_di_3_1427" x="31.7823" y="26.2984" width="188.435" height="188.435" filterUnits="userSpaceOnUse" color-interpolation-filters="sRGB">
<feFlood flood-opacity="0" result="BackgroundImageFix"/>
<feColorMatrix in="SourceAlpha" type="matrix" values="0 0 0 0 0 0 0 0 0 0 0 0 0 0 0 0 0 0 127 0" result="hardAlpha"/>
<feOffset dy="6.51613"/>
<feGaussianBlur stdDeviation="6.10887"/>
<feComposite in2="hardAlpha" operator="out"/>
<feColorMatrix type="matrix" values="0 0 0 0 0.556863 0 0 0 0 0.607843 0 0 0 0 0.682353 0 0 0 0.5 0"/>
<feBlend mode="normal" in2="BackgroundImageFix" result="effect1_dropShadow_3_1427"/>
<feBlend mode="normal" in="SourceGraphic" in2="effect1_dropShadow_3_1427" result="shape"/>
<feColorMatrix in="SourceAlpha" type="matrix" values="0 0 0 0 0 0 0 0 0 0 0 0 0 0 0 0 0 0 127 0" result="hardAlpha"/>
<feOffset dx="2.44355" dy="2.44355"/>
<feGaussianBlur stdDeviation="3.25806"/>
<feComposite in2="hardAlpha" operator="arithmetic" k2="-1" k3="1"/>
<feColorMatrix type="matrix" values="0 0 0 0 1 0 0 0 0 1 0 0 0 0 1 0 0 0 0.5 0"/>
<feBlend mode="normal" in2="shape" result="effect2_innerShadow_3_1427"/>
</filter>
<filter id="filter2_i_3_1427" x="114.733" y="83.1676" width="24.6014" height="36.2218" filterUnits="userSpaceOnUse" color-interpolation-filters="sRGB">
<feFlood flood-opacity="0" result="BackgroundImageFix"/>
<feBlend mode="normal" in="SourceGraphic" in2="BackgroundImageFix" result="shape"/>
<feColorMatrix in="SourceAlpha" type="matrix" values="0 0 0 0 0 0 0 0 0 0 0 0 0 0 0 0 0 0 127 0" result="hardAlpha"/>
<feOffset dy="1.22177"/>
<feGaussianBlur stdDeviation="0.610887"/>
<feComposite in2="hardAlpha" operator="arithmetic" k2="-1" k3="1"/>
<feColorMatrix type="matrix" values="0 0 0 0 0.109804 0 0 0 0 0.356863 0 0 0 0 0.254902 0 0 0 0.15 0"/>
<feBlend mode="normal" in2="shape" result="effect1_innerShadow_3_1427"/>
</filter>
<linearGradient id="paint0_linear_3_1427" x1="91.9836" y1="22.1967" x2="173.951" y2="201.295" gradientUnits="userSpaceOnUse">
<stop stop-color="#DEE2E7"/>
<stop offset="1" stop-color="#DBE0E7"/>
</linearGradient>
<linearGradient id="paint1_linear_3_1427" x1="63.7049" y1="39.4098" x2="169.033" y2="199.246" gradientUnits="userSpaceOnUse">
<stop stop-color="white" stop-opacity="0.5"/>
<stop offset="1" stop-color="#F6F1F1"/>
</linearGradient>
<linearGradient id="paint2_linear_3_1427" x1="90.2182" y1="40.2" x2="163.273" y2="187.8" gradientUnits="userSpaceOnUse">
<stop stop-color="#F5F5F9"/>
<stop offset="1" stop-color="#E4E8EE"/>
</linearGradient>
<linearGradient id="paint3_linear_3_1427" x1="81.2727" y1="58.0909" x2="167" y2="183.327" gradientUnits="userSpaceOnUse">
<stop stop-color="white"/>
<stop offset="1" stop-color="#C0C5CD"/>
</linearGradient>
<linearGradient id="paint4_linear_3_1427" x1="91.3256" y1="54.1453" x2="162.738" y2="172.616" gradientUnits="userSpaceOnUse">
<stop stop-color="#DDE1E7"/>
<stop offset="1" stop-color="#FAFBFC"/>
</linearGradient>
</defs>
</svg>
